<?xml version="1.0" encoding="UTF-8"?>
<svg version="1.1" xmlns="http://www.w3.org/2000/svg" width="2000" height="1909">
<path d="M0 0 C0.68449219 0.4429541 1.36898438 0.8859082 2.07421875 1.34228516 C23.79478397 15.44873008 44.78378369 30.82012722 65 47 C65.60263672 47.48178711 66.20527344 47.96357422 66.82617188 48.45996094 C69.34916818 50.47757037 71.8717088 52.49572858 74.39111328 54.51782227 C78.03129562 57.4370502 81.69146179 60.32799214 85.37207031 63.19604492 C91.15650665 67.70516611 96.81534975 72.32905132 102.39379883 77.09057617 C106.27686927 80.40210219 110.22345859 83.61561386 114.22265625 86.78515625 C117.75363386 89.60099915 121.2501495 92.45813239 124.75 95.3125 C130.35378724 99.87767405 136.00180935 104.3785501 141.69897461 108.82641602 C146.93292721 112.92303763 152.09023864 117.11122035 157.23242188 121.32226562 C157.85310547 121.82951172 158.47378906 122.33675781 159.11328125 122.859375 C159.73710693 123.37773926 160.36093262 123.89610352 161.00366211 124.43017578 C163.00539066 126.05073403 163.00539066 126.05073403 165.29516602 127.50341797 C172.36833281 132.30691935 174.6039781 137.67555867 177.3125 145.625 C177.76699186 146.89815963 178.22326083 148.17068604 178.68115234 149.44262695 C179.90962126 152.88959703 181.09364011 156.35018752 182.26312256 159.81756592 C183.00760012 162.02250952 183.76023291 164.22454098 184.51416016 166.42626953 C205.46351554 227.82810059 219.98274616 292.98881584 220.203125 358.109375 C220.21014759 359.51740551 220.2172344 360.92543569 220.22438049 362.33346558 C220.24377001 366.80564842 220.24881426 371.27777936 220.25 375.75 C220.25044186 376.51185356 220.25088371 377.27370712 220.25133896 378.05864716 C220.2582691 400.84051834 219.97576152 423.37840607 217 446 C216.82597117 447.38793462 216.65265158 448.77595832 216.47998047 450.1640625 C208.58877402 512.84985604 190.61914389 574.58901387 162.41601562 631.15332031 C161.22371019 633.55026537 160.0503399 635.95438105 158.890625 638.3671875 C148.82896451 659.16992171 136.89805689 678.85254812 124 698 C123.42330566 698.86415527 122.84661133 699.72831055 122.25244141 700.61865234 C115.68370661 710.45950295 108.90900699 720.03439812 101.44628906 729.21826172 C99.86952438 731.16073786 98.30565739 733.11321647 96.7421875 735.06640625 C91.39018987 741.7295889 85.9899816 748.30641672 80.1953125 754.59375 C78.33249213 756.63556023 76.51196585 758.70307137 74.69921875 760.7890625 C71.11242388 764.89837338 67.42388905 768.90170488 63.6875 772.875 C63.03450928 773.56972412 62.38151855 774.26444824 61.70874023 774.98022461 C54.77514576 782.33227718 47.80427562 789.58836061 40.1171875 796.1640625 C37.59400545 798.3520617 35.14445481 800.61293113 32.6875 802.875 C27.28484042 807.79594096 21.69552272 812.42417375 16 817 C14.89122702 817.91190989 13.78318686 818.82471134 12.67578125 819.73828125 C-7.74474594 836.47434503 -30.04527787 850.99185955 -53 864 C-53.87479004 864.49757813 -54.74958008 864.99515625 -55.65087891 865.5078125 C-142.96911811 914.85697571 -246.4587632 932.8949301 -343.98046875 906.41015625 C-388.9540058 893.62273908 -430.78661697 870.81924519 -466.6328125 840.9296875 C-468.66545384 839.27271585 -470.71906617 837.73972252 -472.875 836.25 C-475.94127007 834.04228555 -478.3652955 831.69896558 -481 829 C-482.28575488 827.88895491 -483.57797413 826.78536643 -484.875 825.6875 C-488.43094492 822.62226203 -491.46768358 819.31341819 -494.45703125 815.69921875 C-496.08567983 813.76731446 -496.08567983 813.76731446 -499 812 C-499 811.34 -499 810.68 -499 810 C-499.66 810 -500.32 810 -501 810 C-502.33984375 808.671875 -502.33984375 808.671875 -503.9375 806.75 C-506.94914729 803.19588208 -510.06469425 799.77448225 -513.25 796.375 C-518.71158185 790.47147291 -523.67672258 784.25164571 -528.56103516 777.8671875 C-530.00678598 775.99119458 -531.47527444 774.13514655 -532.94921875 772.28125 C-553.0971617 746.73041724 -569.67351866 718.63242977 -585 690 C-590.70396018 694.73752584 -595.93795746 699.82228137 -601.15234375 705.08984375 C-602.01130753 705.95259415 -602.8702713 706.81534454 -603.75526428 707.70423889 C-607.40438107 711.36959543 -611.04751025 715.04088208 -614.69116211 718.71166992 C-617.36363404 721.40231381 -620.03916832 724.08988611 -622.71484375 726.77734375 C-623.52654526 727.5973436 -624.33824677 728.41734344 -625.17454529 729.26219177 C-629.4124056 733.51805365 -633.72759578 737.60409918 -638.28175354 741.52003479 C-640.31478048 743.27112767 -642.27464029 745.08847162 -644.21875 746.9375 C-645.27642578 747.93910156 -645.27642578 747.93910156 -646.35546875 748.9609375 C-647.06316406 749.63382813 -647.77085938 750.30671875 -648.5 751 C-656.08472854 758.2117091 -663.91006209 765.08886833 -671.875 771.875 C-676.03206689 775.42401333 -680.14575502 779.00674022 -684.1875 782.6875 C-688.77357057 786.84316265 -693.52702341 790.75564701 -698.33789062 794.64697266 C-700.22828195 796.18583116 -702.10692707 797.73834595 -703.984375 799.29296875 C-712.27843026 806.16044651 -720.6278038 812.93745629 -729.13085938 819.54443359 C-731.15946477 821.1241809 -733.18147426 822.712145 -735.203125 824.30078125 C-745.97952906 832.75125734 -756.92799708 840.9415416 -768 849 C-768.74749512 849.5451123 -769.49499023 850.09022461 -770.26513672 850.65185547 C-775.49192064 854.46012066 -780.73950831 858.23845953 -786 862 C-786.73138184 862.52464844 -787.46276367 863.04929687 -788.21630859 863.58984375 C-831.43131112 894.51035288 -877.12248764 922.28828123 -924.34521484 946.61962891 C-926.77996626 947.88559217 -929.19949446 949.17508024 -931.61328125 950.48046875 C-967.40890435 969.80467509 -1005.54666339 985.80526228 -1044 999 C-1044.69357605 999.2384967 -1045.3871521 999.47699341 -1046.10174561 999.72271729 C-1113.5536641 1022.85391099 -1183.31851622 1037.21001531 -1254.8125 1037.25 C-1255.90649109 1037.25067474 -1257.00048218 1037.25134949 -1258.12762451 1037.25204468 C-1360.83033932 1037.15218108 -1457.96232564 1004.15658559 -1564.25146484 926.44433594 C-1566.73089102 924.39626483 -1569.24372046 922.39006309 -1571.75 920.375 C-1576.74521473 916.288689 -1581.48408405 911.96018773 -1586.20703125 907.56640625 C-1588.55009685 905.41340751 -1590.93488951 903.35289715 -1593.375 901.3125 C-1600.67945412 894.91921069 -1605.34637529 886.39004652 -1610.25 878.125 C-1610.90895264 877.01946777 -1611.56790527 875.91393555 -1612.24682617 874.77490234 C-1617.26903206 866.3127706 -1622.16800821 857.79464591 -1626.84375 849.13623047 C-1628.00986387 846.98177601 -1629.19238103 844.83683552 -1630.375 842.69140625 C-1655.25465067 797.05530509 -1671.21875528 747.62077254 -1680.34375 696.60498047 C-1680.89966793 693.55115449 -1681.49596691 690.51201927 -1682.125 687.47265625 C-1700.22346242 598.10622053 -1669.9698201 497.20934384 -1619.04345703 415.85131836 C-1617.06487477 412.87559657 -1615.04363486 409.93134135 -1613 407 C-1612.59185059 406.4131543 -1612.18370117 405.82630859 -1611.76318359 405.22167969 C-1592.31912533 377.37942693 -1570.0029452 351.97588974 -1546.0625 327.9375 C-1545.28181152 327.15213867 -1544.50112305 326.36677734 -1543.69677734 325.55761719 C-1539.51134168 321.38380029 -1535.24164966 317.37329099 -1530.76196289 313.5168457 C-1528.53061307 311.59591229 -1526.36048433 309.61151107 -1524.1875 307.625 C-1519.92389983 303.78193702 -1515.55447727 300.10677266 -1511.08984375 296.5 C-1508.84039335 294.67996428 -1506.60526208 292.84781118 -1504.37890625 291 C-1495.25571776 283.45765868 -1485.86697708 276.3994738 -1476.20410156 269.56445312 C-1474.11409833 268.08098605 -1472.03605996 266.58230891 -1469.9609375 265.078125 C-1439.40396758 243.04235062 -1406.43418036 223.72493407 -1372.55664062 207.24951172 C-1370.02926455 206.01430252 -1367.50906269 204.76507703 -1364.98942566 203.51417542 C-1346.94698211 194.56986592 -1328.74499618 186.39007663 -1310 179 C-1308.84387207 178.54173828 -1307.68774414 178.08347656 -1306.49658203 177.61132812 C-1227.55910345 146.49100244 -1144.44750696 127.23360001 -981.375 115.8125 C-980.27571167 115.81310425 -979.17642334 115.8137085 -978.04382324 115.81433105 C-897.98080576 115.93258401 -818.31473504 127.53555374 -647 192 C-645.95247559 192.52513184 -644.90495117 193.05026367 -643.82568359 193.59130859 C-632.29732744 199.40930262 -621.14350374 205.7362991 -610.125 212.46875 C-609.40054687 212.90832031 -608.67609375 213.34789062 -607.9296875 213.80078125 C-606.33960868 214.78894764 -604.78861059 215.83971311 -603.25 216.90625 C-600.26632017 218.35664992 -599.12427766 218.0706535 -596 217 C-593.51319182 215.88845062 -591.10655399 214.74247246 -588.6875 213.5 C-587.9860083 213.14252686 -587.2845166 212.78505371 -586.56176758 212.41674805 C-584.36821717 211.28948305 -582.18275545 210.14801511 -580 209 C-579.34 208.65404785 -578.68 208.3080957 -578 207.95166016 C-557.77026815 197.24030264 -539.44243832 183.49753858 -522.1015625 168.6328125 C-519.36706908 166.29496349 -516.5668698 164.05067752 -513.75 161.8125 C-504.50013164 154.29018058 -495.84710498 145.93589849 -487.484375 137.4453125 C-485.13956401 135.08157835 -482.7264791 132.86253262 -480.19921875 130.6953125 C-475.15391088 126.33949356 -470.50059438 121.60854198 -465.8125 116.875 C-464.93658203 115.99457031 -464.06066406 115.11414063 -463.15820312 114.20703125 C-461.5298301 112.57001637 -459.90249577 110.93196704 -458.27661133 109.29248047 C-455.85683972 106.85584182 -453.42822009 104.42822009 -451 102 C-449.04748129 100.04276751 -447.0952431 98.08525821 -445.14331055 96.12744141 C-439.4063656 90.3741383 -433.66686142 84.62339535 -427.92590618 78.87409401 C-424.46139768 75.40436748 -420.99783097 71.93371145 -417.53637695 68.4609375 C-414.17415887 65.08779962 -410.80945464 61.71715972 -407.44306374 58.34818649 C-406.16767484 57.07096245 -404.89316029 55.79286465 -403.61957359 54.51384354 C-397.25256617 48.12073835 -390.88788664 41.83771858 -384 36 C-382.04535542 34.22625305 -380.11899962 32.42413112 -378.1875 30.625 C-372.6433473 25.50994773 -366.89020796 20.71372462 -361 16 C-359.86916043 15.07759625 -358.73898485 14.15437804 -357.609375 13.23046875 C-276.13188651 -53.10966713 -179.25855188 -76.05315606 0 0 Z M-175 257 C-175.84788086 257.6182666 -175.84788086 257.6182666 -176.71289062 258.24902344 C-190.09030193 268.09562334 -202.43528012 279.09177359 -214 291 C-216.82832972 293.84247136 -219.6736897 296.66732643 -222.5234375 299.48828125 C-228.90520932 305.81574012 -235.22464043 312.10723391 -241 319 C-241.93089756 320.08062959 -242.863345 321.15992495 -243.796875 322.23828125 C-249.68205247 329.04443933 -255.4542344 335.91266669 -261 343 C-261.48662109 343.61794434 -261.97324219 344.23588867 -262.47460938 344.87255859 C-271.55659253 356.40949836 -280.35616915 368.13204002 -289 380 C-289.55042969 380.7528125 -290.10085938 381.505625 -290.66796875 382.28125 C-296.56253895 390.34603013 -302.3646978 398.46504657 -307.9921875 406.71875 C-308.54668076 407.53073853 -309.10117401 408.34272705 -309.67247009 409.17932129 C-315.7078594 418.02482864 -321.71827052 426.88722723 -327.71166992 435.76123047 C-328.94611822 437.58790782 -330.18179698 439.41375425 -331.41870117 441.23876953 C-338.38840136 451.52295753 -345.24162148 461.85804583 -351.83781433 472.38626099 C-356.06560652 479.13169907 -360.43461584 485.76758222 -364.875 492.375 C-365.64615475 493.52628783 -366.417064 494.67774012 -367.18774414 495.8293457 C-368.72820344 498.13085558 -370.26975625 500.43162705 -371.81201172 502.73193359 C-374.4474375 506.66831047 -377.06942567 510.61350172 -379.69067383 514.55932617 C-384.47620718 521.75936342 -389.29244715 528.93637423 -394.1875 536.0625 C-394.85640259 537.036427 -394.85640259 537.036427 -395.53881836 538.0300293 C-397.23359522 540.48625156 -398.89174889 542.87677075 -400.86328125 545.12109375 C-402.22152427 546.98191957 -402.22152427 546.98191957 -401.92578125 549.4375 C-399.99583907 554.77944966 -395.71194243 558.79365787 -392 563 C-391.31188232 563.78286377 -391.31188232 563.78286377 -390.60986328 564.58154297 C-356.35795015 603.26675019 -310.32449072 627.41838884 -259 634 C-258.29713867 634.0942627 -257.59427734 634.18852539 -256.87011719 634.28564453 C-248.56721942 635.26606698 -240.22378274 635.24362301 -231.875 635.25 C-231.07865143 635.25067474 -230.28230286 635.25134949 -229.46182251 635.25204468 C-215.78071256 635.23371434 -202.4926265 634.39572848 -189 632 C-188.10764648 631.84966309 -187.21529297 631.69932617 -186.29589844 631.54443359 C-159.54144736 626.90217479 -133.14907786 617.28445155 -109 605 C-108.20142578 604.59458984 -107.40285156 604.18917969 -106.58007812 603.77148438 C-88.99324466 594.70350526 -72.33370286 583.49116264 -57 571 C-55.99195313 570.195625 -54.98390625 569.39125 -53.9453125 568.5625 C-37.033715 554.76321356 -20.83019923 538.66411232 -8 521 C-7.2059375 520.01257813 -6.411875 519.02515625 -5.59375 518.0078125 C42.13597711 458.6477405 59.76481688 378.60708699 52.09863281 303.93359375 C51.92605957 302.35771484 51.92605957 302.35771484 51.75 300.75 C51.65299805 299.75613281 51.55599609 298.76226562 51.45605469 297.73828125 C50.7062779 291.64713683 49.55471942 288.21523723 45 284 C44.34 284 43.68 284 43 284 C42.77183594 283.44699219 42.54367187 282.89398438 42.30859375 282.32421875 C37.8293385 274.36852659 28.76723681 267.76122023 21.71875 262.16796875 C19.96193503 260.76706026 18.23024767 259.33377448 16.53125 257.86328125 C-42.14878317 207.42380829 -115.01574189 213.24414043 -175 257 Z M-1385.19140625 530.37890625 C-1387.81436811 532.82676078 -1390.49001001 535.19752033 -1393.1875 537.5625 C-1414.67595532 556.93285639 -1431.3534529 582.63534041 -1443.1875 608.875 C-1443.49131592 609.53491943 -1443.79513184 610.19483887 -1444.1081543 610.87475586 C-1445.59867886 614.26311209 -1445.59867886 614.26311209 -1445.8503418 617.89819336 C-1444.64171386 620.88558295 -1442.755125 622.61618088 -1440.4765625 624.88671875 C-1440.01575287 625.34802689 -1439.55494324 625.80933502 -1439.08016968 626.28462219 C-1438.10016593 627.26228696 -1437.11647103 628.23626367 -1436.12939453 629.20678711 C-1434.6562691 630.65672312 -1433.19649822 632.11907379 -1431.73828125 633.58398438 C-1425.48951809 639.81421896 -1418.93873878 645.54251164 -1412 651 C-1411.33210449 651.53262451 -1410.66420898 652.06524902 -1409.97607422 652.61401367 C-1361.01140955 691.33317521 -1297.3128325 713.91882687 -1234.7890625 714.203125 C-1233.75087875 714.21013931 -1232.71269501 714.21715363 -1231.64305115 714.22438049 C-1228.3036562 714.2418083 -1224.96443879 714.24823467 -1221.625 714.25 C-1220.48239716 714.25067474 -1219.33979431 714.25134949 -1218.16256714 714.25204468 C-1200.57603717 714.2355483 -1183.4048439 713.71523968 -1166 711 C-1164.85208984 710.82307617 -1163.70417969 710.64615234 -1162.52148438 710.46386719 C-1070.68033939 695.91104208 -983.37024037 655.56363926 -912 596 C-911.42411133 595.52320801 -910.84822266 595.04641602 -910.25488281 594.55517578 C-897.9006282 584.32442058 -886.30136533 573.39799032 -874.9251709 562.10040283 C-873.82520954 561.00849701 -872.72377337 559.91807446 -871.62072754 558.82928467 C-864.66097238 551.94996302 -857.68646675 545.00167107 -852 537 C-852 536.34 -852 535.68 -852 535 C-850.515 534.505 -850.515 534.505 -849 534 C-847.60652463 532.61328641 -847.60652463 532.61328641 -846.3203125 530.8515625 C-845.55509277 529.85261963 -845.55509277 529.85261963 -844.77441406 528.83349609 C-844.23010742 528.10469238 -843.68580078 527.37588867 -843.125 526.625 C-842.26986816 525.49118896 -842.26986816 525.49118896 -841.39746094 524.33447266 C-824.8970263 503.4773517 -824.8970263 503.4773517 -813 480 C-889.02992928 437.30840755 -985.18189038 423.00064051 -1385.19140625 530.37890625 Z " fill="#B10559" transform="translate(1729,76)"/>
<path d="M0 0 C0.82032715 0.17160645 1.6406543 0.34321289 2.48583984 0.52001953 C49.2899465 10.64447253 96.68766644 36.28994615 130 71 C133.76381862 69.49278852 135.58463482 67.35083069 138.0625 64.1875 C139.24005859 62.70830078 139.24005859 62.70830078 140.44140625 61.19921875 C140.85664551 60.67634277 141.27188477 60.1534668 141.69970703 59.61474609 C143.91377109 56.86524934 146.20933768 54.18570061 148.5 51.5 C152.61539339 46.65898841 156.65732444 41.76433285 160.66796875 36.8359375 C163.80315963 33.02329331 166.99413759 29.25926436 170.1953125 25.50195312 C172.85579509 22.37451268 175.43331458 19.20835677 178 16 C188.23 16 198.46 16 209 16 C209 174.07 209 332.14 209 495 C198.77 495 188.54 495 178 495 C173.2392665 489.04908313 168.63002835 483.23744891 164.3125 477 C163.27689663 475.51893306 162.24040794 474.03848486 161.203125 472.55859375 C160.67654297 471.80690918 160.14996094 471.05522461 159.60742188 470.28076172 C156.95638364 466.51921871 154.26106911 462.79002577 151.5625 459.0625 C151.03221191 458.3298291 150.50192383 457.5971582 149.95556641 456.84228516 C148.87003129 455.34308818 147.78425399 453.84406655 146.69824219 452.34521484 C143.69043268 448.19153197 140.68942303 444.03293796 137.6875 439.875 C136.58726799 438.35154199 135.48701031 436.8281025 134.38671875 435.3046875 C133.59114583 434.203125 132.79557292 433.1015625 132 432 C128.1582596 433.31621367 125.82356594 434.85537922 122.9375 437.6875 C80.07726047 477.34921419 20.8302878 504.55783638 -37.8125 504.3125 C-38.71562927 504.31067719 -39.61875854 504.30885437 -40.54925537 504.30697632 C-55.20841273 504.25726505 -69.53804761 503.56222767 -84 501 C-85.37502686 500.76651855 -85.37502686 500.76651855 -86.77783203 500.52832031 C-132.79243624 492.45501732 -175.28800754 471.25406236 -209 439 C-209.55155762 438.48099121 -210.10311523 437.96198242 -210.67138672 437.42724609 C-220.23905547 428.39396335 -228.33262774 418.68174198 -236 408 C-236.43763672 407.40171387 -236.87527344 406.80342773 -237.32617188 406.18701172 C-278.57388893 349.44726989 -289.41864512 272.49171508 -278.73413086 204.39160156 C-268.09186873 140.82783322 -234.77857311 80.91430677 -182.04296875 42.83203125 C-130.77353788 6.59640144 -62.51142691 -13.18670767 0 0 Z M-122 155 C-122.64582031 155.57105469 -123.29164063 156.14210938 -123.95703125 156.73046875 C-145.02422562 175.92283084 -155.11811543 209.36220053 -156.91015625 236.8984375 C-158.05039547 276.26147848 -151.75611516 311.88024024 -126 343 C-124.99646484 344.28197266 -124.99646484 344.28197266 -123.97265625 345.58984375 C-105.57412692 368.06883899 -75.2675454 377.81773463 -47.46142578 380.77294922 C-17.62120566 383.52551862 11.59842824 373.7734183 34.71484375 354.84765625 C62.61866809 331.08653537 80.29247817 299.46369495 84.6875 262.9375 C84.81377677 261.29321528 84.91663865 259.6470182 85 258 C85.05285156 257.01515625 85.10570312 256.0303125 85.16015625 255.015625 C86.1175685 219.54974512 71.56943911 185.1791613 47.67578125 159.359375 C40.16966902 151.47997208 32.17527709 144.84068396 23 139 C22.43313477 138.63680664 21.86626953 138.27361328 21.28222656 137.89941406 C-24.3863683 109.11230777 -83.9331743 118.37804652 -122 155 Z " fill="#FEFEFE" transform="translate(1769,1384)"/>
<path d="M0 0 C1.65608104 1.50892926 3.30878141 3.02158289 4.95703125 4.5390625 C7.87094739 7.12173417 10.92963324 9.31382213 14.15625 11.48828125 C14.47916016 10.70130859 14.47916016 10.70130859 14.80859375 9.8984375 C16.68486411 6.5429047 19.19120649 3.79747427 21.71875 0.92578125 C22.81348639 -0.33377878 23.90722798 -1.59420409 25 -2.85546875 C25.53882813 -3.47679687 26.07765625 -4.098125 26.6328125 -4.73828125 C28.7040897 -7.14946034 30.71546009 -9.60639784 32.71875 -12.07421875 C36.4371899 -16.65334637 40.23176171 -21.16090023 44.05297852 -25.65405273 C47.86132301 -30.14065996 51.58496534 -34.68994328 55.28125 -39.26953125 C57.15625 -41.51171875 57.15625 -41.51171875 60.15625 -44.51171875 C70.05625 -44.51171875 79.95625 -44.51171875 90.15625 -44.51171875 C90.15625 113.55828125 90.15625 271.62828125 90.15625 434.48828125 C79.92625 434.48828125 69.69625 434.48828125 59.15625 434.48828125 C50.64073905 425.69357322 50.64073905 425.69357322 48.7734375 421.62109375 C46.22848933 416.47498758 43.10192712 412.0639705 39.65625 407.48828125 C38.57743545 406.00108162 37.50191756 404.51148509 36.4296875 403.01953125 C34.18689285 399.91391554 31.94179639 396.80997924 29.6953125 393.70703125 C24.1234407 386.00768876 18.55912022 378.30770797 13.15625 370.48828125 C8.96271082 373.50488709 4.95782028 376.6120277 1.15625 380.11328125 C-15.88179782 395.45337929 -35.76174244 407.60925743 -55.84375 418.48828125 C-56.59011719 418.89433594 -57.33648437 419.30039063 -58.10546875 419.71875 C-84.18413429 433.63687205 -115.90446094 443.51698993 -145.59375 443.69140625 C-146.40109085 443.69846588 -147.2084317 443.70552551 -148.04023743 443.71279907 C-211.76944933 444.14271306 -272.47727062 427.38040896 -320.84375 384.48828125 C-321.39450195 384.00069336 -321.94525391 383.51310547 -322.51269531 383.01074219 C-367.83134423 342.63690232 -392.40213949 285.14561872 -398.84375 225.48828125 C-398.98731934 224.22346924 -398.98731934 224.22346924 -399.13378906 222.93310547 C-400.16007478 212.60587554 -400.08747089 202.23105487 -400.09375 191.86328125 C-400.09442474 190.86206238 -400.09509949 189.86084351 -400.09579468 188.82928467 C-400.0486839 144.76265121 -390.68893947 102.50165757 -369.84375 63.48828125 C-369.49731445 62.83408203 -369.15087891 62.17988281 -368.79394531 61.50585938 C-360.95229736 46.79828545 -351.75889797 33.10397763 -340.84375 20.48828125 C-339.83828125 19.31652344 -339.83828125 19.31652344 -338.8125 18.12109375 C-328.37765617 6.2456185 -317.27732244 -4.85562304 -304.546875 -14.25292969 C-302.88340069 -15.48241271 -301.23847448 -16.73388087 -299.59375 -17.98828125 C-222.81256718 -75.61702138 -118.54058944 -77.81033087 0 0 Z M-244.59375 98.30078125 C-270.76380451 128.72885194 -277.29585504 168.58380715 -274.84375 207.48828125 C-271.99580373 239.92470357 -258.68351724 272.12999432 -233.3828125 293.47265625 C-222.41448532 302.41916509 -211.12710483 308.64800636 -197.84375 313.48828125 C-196.81636719 313.87113281 -195.78898437 314.25398438 -194.73046875 314.6484375 C-167.12574177 324.06483594 -135.42762927 322.92545416 -109.109375 310.2578125 C-75.93470951 293.6770412 -51.50536632 265.41241527 -39.59350586 230.27563477 C-38.56876468 227.03642748 -37.69461204 223.77828114 -36.84375 220.48828125 C-36.52535156 219.29976562 -36.20695313 218.11125 -35.87890625 216.88671875 C-28.10444719 182.85106849 -36.89690213 147.63953811 -55.07470703 118.51611328 C-72.23956819 92.03140415 -99.17672022 70.64717821 -130.15625 63.23046875 C-172.08569176 54.79128026 -215.01170902 67.02393584 -244.59375 98.30078125 Z " fill="#FEFEFE" transform="translate(419.84375,1444.51171875)"/>
<path d="M0 0 C1.1342038 0.00273422 1.1342038 0.00273422 2.2913208 0.00552368 C15.32868439 0.05807299 28.04410102 0.8560852 40.875 3.3125 C42.18283447 3.56193359 42.18283447 3.56193359 43.51708984 3.81640625 C63.32864139 7.75755115 82.14194537 14.68067998 99.875 24.3125 C100.53693359 24.66425293 101.19886719 25.01600586 101.88085938 25.37841797 C111.77656314 30.64586794 120.9343266 36.55462972 129.875 43.3125 C130.74511719 43.96863281 131.61523438 44.62476563 132.51171875 45.30078125 C177.58860295 80.36058007 206.14824168 132.6871917 213.48800755 189.09468651 C215.19913857 203.32261377 215.01370389 217.55512914 214.99106562 231.86308479 C214.98670536 235.32572034 214.98821146 238.7883543 214.9889679 242.25099182 C214.98948963 248.23505479 214.98637966 254.21910676 214.98073006 260.20316696 C214.97256727 268.85487604 214.96999496 277.50657986 214.96874207 286.15829237 C214.96655902 300.19863021 214.95991928 314.2389622 214.95043945 328.27929688 C214.94124594 341.90983044 214.93418609 355.5403624 214.92993164 369.17089844 C214.92966364 370.02109983 214.92939565 370.87130122 214.92911953 371.74726629 C214.92703983 378.39741863 214.925083 385.047571 214.92316496 391.69772339 C214.91374887 424.23598762 214.89362641 456.77423721 214.875 489.3125 C174.285 489.3125 133.695 489.3125 91.875 489.3125 C91.82601563 469.58597656 91.77703125 449.85945313 91.7265625 429.53515625 C91.69117516 417.034501 91.65530654 404.5338499 91.6171875 392.03320312 C91.59718175 385.46427453 91.57729767 378.89534559 91.55761719 372.32641602 C91.55514575 371.50319369 91.55267431 370.67997136 91.55012798 369.8318029 C91.51049063 356.56981454 91.47771231 343.30781773 91.44750018 330.04580493 C91.41630285 316.41887811 91.37765856 302.79198684 91.33220994 289.16510004 C91.30443407 280.76764865 91.28235424 272.37022303 91.26773749 263.97273826 C91.2571336 258.20151652 91.239247 252.43034488 91.21583296 246.65916104 C91.20256609 243.33761115 91.19340453 240.01619153 91.19078636 236.69460678 C91.16225993 205.98315173 88.65802075 179.32649457 67.875 155.3125 C67.2665625 154.50683594 66.658125 153.70117188 66.03125 152.87109375 C53.30088964 137.76532194 31.28482546 127.66448619 11.875 125.3125 C-5.95327933 124.35523863 -21.62081788 126.09732091 -38.125 133.3125 C-38.98609375 133.68117188 -39.8471875 134.04984375 -40.734375 134.4296875 C-61.97091195 144.23636858 -77.42438747 162.79882971 -85.44713163 184.43923473 C-90.71908111 199.00808073 -90.71505997 213.07834604 -90.67380548 228.43338799 C-90.66880613 231.94375352 -90.68701229 235.45401464 -90.70222473 238.96434021 C-90.72540852 245.02805599 -90.73429101 251.09165261 -90.73311615 257.15541077 C-90.73143877 265.92227026 -90.75186401 274.68897205 -90.77747145 283.45578927 C-90.81843942 297.68357188 -90.84183653 311.91132589 -90.85400391 326.13916016 C-90.86585276 339.95006046 -90.88608865 353.76090704 -90.91748047 367.57177734 C-90.91941657 368.4248415 -90.92135267 369.27790565 -90.92334744 370.15682024 C-90.93311282 374.43691886 -90.94304179 378.71701708 -90.95305204 382.99711514 C-91.03572403 418.43556822 -91.08653464 453.87396596 -91.125 489.3125 C-132.045 489.3125 -172.965 489.3125 -215.125 489.3125 C-215.125 330.9125 -215.125 172.5125 -215.125 9.3125 C-184.125 9.3125 -184.125 9.3125 -177.25 14.625 C-175.80189833 16.80738644 -174.42273759 19.03748655 -173.125 21.3125 C-171.65845165 23.17270081 -170.15875307 25.00730953 -168.625 26.8125 C-167.90441406 27.70839844 -167.18382812 28.60429688 -166.44140625 29.52734375 C-163.47264078 33.0968712 -160.32775483 36.47931674 -157.16479492 39.87597656 C-152.89533781 44.49168778 -148.96585899 49.33809237 -145.125 54.3125 C-141.45053851 52.72912549 -138.81294062 50.4352918 -135.8125 47.8125 C-124.33975762 38.04569523 -111.43436647 30.30680597 -98.125 23.3125 C-97.47370117 22.96977051 -96.82240234 22.62704102 -96.15136719 22.27392578 C-80.08318744 13.96128896 -62.82451323 8.33813652 -45.1875 4.4375 C-44.32624512 4.24647705 -43.46499023 4.0554541 -42.57763672 3.85864258 C-28.46982527 0.9432045 -14.37166728 -0.07279773 0 0 Z " fill="#FEFEFE" transform="translate(817.125,1389.6875)"/>
<path d="M0 0 C40.59 0 81.18 0 123 0 C123 63.03 123 126.06 123 191 C184.05 191 245.1 191 308 191 C308 231.59 308 272.18 308 314 C246.95 314 185.9 314 123 314 C123.0825 338.70875 123.165 363.4175 123.25 388.875 C123.26579102 396.64659668 123.28158203 404.41819336 123.29785156 412.42529297 C123.33111426 419.45571749 123.33111426 419.45571749 123.36956787 426.4861145 C123.38641826 429.59203935 123.39243858 432.69777199 123.39154053 435.80374146 C123.3918757 456.90413442 123.49933311 476.60975002 133 496 C133.44085937 496.92039062 133.88171875 497.84078125 134.3359375 498.7890625 C137.99929803 505.97410663 142.66123765 511.98008522 148 518 C148.60328125 518.69867187 149.2065625 519.39734375 149.828125 520.1171875 C165.20683296 536.76631046 189.0280522 546.1232885 211.39746284 547.10524178 C213.96842672 547.16098757 216.53810504 547.18874474 219.10961914 547.20532227 C220.09201034 547.21535499 221.07440153 547.22538771 222.08656216 547.23572445 C225.23607031 547.26686437 228.38559117 547.2917785 231.53515625 547.31640625 C233.49182523 547.33483235 235.44849037 547.3536702 237.40515137 547.3729248 C244.62422226 547.44109716 251.84336641 547.50132575 259.0625 547.5625 C283.2865625 547.7790625 283.2865625 547.7790625 308 548 C308 588.26 308 628.52 308 670 C289.80875 670.061875 271.6175 670.12375 252.875 670.1875 C244.32634033 670.22846802 244.32634033 670.22846802 235.60498047 670.27026367 C228.53149414 670.28381348 228.53149414 670.28381348 225.19802856 670.28633118 C222.91814404 670.29087444 220.63826574 670.30128982 218.35842896 670.31672668 C199.10969405 670.44030409 180.08930128 669.48139829 161.4375 664.3125 C160.49898193 664.05903809 159.56046387 663.80557617 158.59350586 663.54443359 C142.66929659 659.09606211 127.53159806 652.8559638 113 645 C112.1020874 644.52095215 112.1020874 644.52095215 111.18603516 644.03222656 C92.88393294 634.20525971 77.03351785 621.23513943 62 607 C61.31808594 606.360625 60.63617187 605.72125 59.93359375 605.0625 C22.7942743 569.21573227 1.17304565 514.40403064 -0.08955574 463.38095665 C-0.12201102 459.41349829 -0.12409246 455.44675805 -0.11352539 451.47924805 C-0.11324256 449.96996055 -0.11340312 448.46067292 -0.1139679 446.9513855 C-0.11425214 442.89648716 -0.10841625 438.84161905 -0.10139394 434.78672767 C-0.09509779 430.5333419 -0.09455168 426.27995526 -0.09336853 422.02656555 C-0.09027354 413.99110891 -0.0820851 405.95566604 -0.07201904 397.92021543 C-0.06080069 388.76410457 -0.0553331 379.60799303 -0.05032361 370.451877 C-0.03990075 351.63457529 -0.02157832 332.81729245 0 314 C-19.47 314 -38.94 314 -59 314 C-59 273.41 -59 232.82 -59 191 C-39.53 191 -20.06 191 0 191 C0 127.97 0 64.94 0 0 Z " fill="#FEFEFE" transform="translate(1137,1209)"/>
<path d="M0 0 C10.23 0 20.46 0 31 0 C31 158.07 31 316.14 31 479 C30.67 479 30.34 479 30 479 C30 321.26 30 163.52 30 1 C3.88862296 -1.25146001 3.88862296 -1.25146001 -4 8 C-4.66 7.67 -5.32 7.34 -6 7 C-4.02 4.69 -2.04 2.38 0 0 Z " fill="#C7C7C7" transform="translate(1947,1400)"/>
<path d="M0 0 C0.66 0.33 1.32 0.66 2 1 C-7.24 10.24 -16.48 19.48 -26 29 C-26.66 28.67 -27.32 28.34 -28 28 C-19.06761255 18.18523385 -9.85894144 8.88503385 0 0 Z " fill="#DED7DA" transform="translate(1575,1436)"/>
<path d="M0 0 C1.41789199 0.03514765 2.83586753 0.06708066 4.25390625 0.09570312 C7.71268539 0.17248745 11.16830845 0.29307441 14.625 0.4375 C14.625 0.7675 14.625 1.0975 14.625 1.4375 C13.80821777 1.43637207 12.99143555 1.43524414 12.14990234 1.43408203 C8.43243735 1.44622199 4.71701105 1.50390672 1 1.5625 C-0.28519531 1.55992188 -1.57039063 1.55734375 -2.89453125 1.5546875 C-10.81426185 1.50214985 -10.81426185 1.50214985 -17.2734375 5.4921875 C-17.96695312 6.46414063 -18.66046875 7.43609375 -19.375 8.4375 C-20.035 8.1075 -20.695 7.7775 -21.375 7.4375 C-16.77282278 -1.59947607 -8.88672554 -0.382391 0 0 Z " fill="#CFCFCF" transform="translate(1962.375,1399.5625)"/>
<path d="M0 0 C0.99 0.33 1.98 0.66 3 1 C1.02 2.98 -0.96 4.96 -3 7 C-3.66 6.67 -4.32 6.34 -5 6 C-3.35 4.02 -1.7 2.04 0 0 Z " fill="#E2DADE" transform="translate(1946,1401)"/>
</svg>
